<?xml version="1.0" encoding="UTF-8"?>
<!DOCTYPE svg PUBLIC "-//W3C//DTD SVG 1.1//EN" "http://www.w3.org/Graphics/SVG/1.1/DTD/svg11.dtd">
<svg xmlns="http://www.w3.org/2000/svg" version="1.1" width="480px" height="256px" style="shape-rendering:geometricPrecision; text-rendering:geometricPrecision; image-rendering:optimizeQuality; fill-rule:evenodd; clip-rule:evenodd" xmlns:xlink="http://www.w3.org/1999/xlink">
<g><path style="opacity:1" fill="#fefefe" d="M -0.5,-0.5 C 159.5,-0.5 319.5,-0.5 479.5,-0.5C 479.5,84.8333 479.5,170.167 479.5,255.5C 319.5,255.5 159.5,255.5 -0.5,255.5C -0.5,170.167 -0.5,84.8333 -0.5,-0.5 Z"/></g>
<g><path style="opacity:1" fill="#9ad7cb" d="M 133.5,19.5 C 133.5,21.5 133.5,23.5 133.5,25.5C 131.142,29.0771 127.809,30.2437 123.5,29C 118.182,25.049 118.182,21.049 123.5,17C 125.167,16.3333 126.833,16.3333 128.5,17C 130.078,18.0945 131.745,18.9278 133.5,19.5 Z"/></g>
<g><path style="opacity:1" fill="#99d7c8" d="M 59.5,25.5 C 59.5,23.5 59.5,21.5 59.5,19.5C 64.2582,15.2783 68.7582,15.6116 73,20.5C 73.1754,27.6468 69.6754,30.4801 62.5,29C 61.3636,27.8549 60.3636,26.6883 59.5,25.5 Z"/></g>
<g><path style="opacity:1" fill="#aad6ea" d="M 291.5,49.5 C 294.5,49.5 297.5,49.5 300.5,49.5C 300.5,66.1667 300.5,82.8333 300.5,99.5C 297.5,99.5 294.5,99.5 291.5,99.5C 291.5,82.8333 291.5,66.1667 291.5,49.5 Z"/></g>
<g><path style="opacity:1" fill="#aad7e9" d="M 192.5,53.5 C 195.5,53.5 198.5,53.5 201.5,53.5C 201.5,59.5 201.5,65.5 201.5,71.5C 207.167,71.5 212.833,71.5 218.5,71.5C 218.5,65.5 218.5,59.5 218.5,53.5C 221.833,53.5 225.167,53.5 228.5,53.5C 228.5,68.8333 228.5,84.1667 228.5,99.5C 225.167,99.5 221.833,99.5 218.5,99.5C 218.5,92.8333 218.5,86.1667 218.5,79.5C 212.833,79.5 207.167,79.5 201.5,79.5C 201.5,86.1667 201.5,92.8333 201.5,99.5C 198.5,99.5 195.5,99.5 192.5,99.5C 192.5,84.1667 192.5,68.8333 192.5,53.5 Z"/></g>
<g><path style="opacity:1" fill="#a9d7e7" d="M 350.5,53.5 C 357.508,53.3337 364.508,53.5004 371.5,54C 383.464,56.9025 389.131,64.5691 388.5,77C 387.923,88.8436 381.923,96.1769 370.5,99C 363.842,99.4996 357.175,99.6663 350.5,99.5C 350.5,84.1667 350.5,68.8333 350.5,53.5 Z"/></g>
<g><path style="opacity:1" fill="#fafdfe" d="M 359.5,61.5 C 375.143,60.6535 381.31,67.9868 378,83.5C 373.974,90.8743 367.808,93.541 359.5,91.5C 359.5,81.5 359.5,71.5 359.5,61.5 Z"/></g>
<g><path style="opacity:1" fill="#abd8e5" d="M 404.5,65.5 C 415.283,63.1438 423.116,66.8105 428,76.5C 428.776,93.7239 420.609,101.224 403.5,99C 399.333,97.5 396.5,94.6667 395,90.5C 390.445,78.9795 393.611,70.6461 404.5,65.5 Z"/></g>
<g><path style="opacity:1" fill="#add8e5" d="M 443.5,65.5 C 449.613,64.4104 454.779,66.077 459,70.5C 460.394,77.8057 458.561,78.9723 453.5,74C 445.05,73.1168 441.216,76.9501 442,85.5C 443.732,90.6165 447.232,92.4499 452.5,91C 458.619,85.6412 460.786,87.1412 459,95.5C 447.104,103.004 438.438,100.337 433,87.5C 431.441,77.6213 434.941,70.288 443.5,65.5 Z"/></g>
<g><path style="opacity:1" fill="#f8fdfd" d="M 407.5,73.5 C 417.145,73.3305 420.645,77.9972 418,87.5C 415.089,91.2771 411.256,92.4437 406.5,91C 402.797,87.604 401.631,83.4374 403,78.5C 404.025,76.313 405.525,74.6464 407.5,73.5 Z"/></g>
<g><path style="opacity:1" fill="#cde5f0" d="M 282.5,99.5 C 282.5,83.1667 282.5,66.8333 282.5,50.5C 279.833,50.5 277.167,50.5 274.5,50.5C 274.5,66.8333 274.5,83.1667 274.5,99.5C 273.503,83.0084 273.17,66.3417 273.5,49.5C 276.833,49.5 280.167,49.5 283.5,49.5C 283.83,66.3417 283.497,83.0084 282.5,99.5 Z"/></g>
<g><path style="opacity:1" fill="#aad4e6" d="M 282.5,99.5 C 279.833,99.5 277.167,99.5 274.5,99.5C 274.5,83.1667 274.5,66.8333 274.5,50.5C 277.167,50.5 279.833,50.5 282.5,50.5C 282.5,66.8333 282.5,83.1667 282.5,99.5 Z"/></g>
<g><path style="opacity:1" fill="#a7d9e8" d="M 244.5,65.5 C 252.077,64.3473 258.577,66.3473 264,71.5C 264.5,80.8274 264.666,90.1607 264.5,99.5C 262.167,99.5 259.833,99.5 257.5,99.5C 257.5,98.5 257.5,97.5 257.5,96.5C 255.158,96.5041 253.158,97.3375 251.5,99C 240,100.833 235.167,96 237,84.5C 238.952,82.1064 241.452,80.6064 244.5,80C 248.152,79.5014 251.818,79.3347 255.5,79.5C 255.739,77.5328 255.406,75.6995 254.5,74C 250.5,73.3333 246.5,73.3333 242.5,74C 241.095,75.2692 239.429,75.7692 237.5,75.5C 237.337,73.1432 237.503,70.8098 238,68.5C 240.166,67.2685 242.333,66.2685 244.5,65.5 Z"/></g>
<g><path style="opacity:1" fill="#f6fafb" d="M 246.5,85.5 C 249.518,85.3354 252.518,85.502 255.5,86C 256.5,88.0907 255.833,89.7574 253.5,91C 250.854,91.4974 248.187,91.6641 245.5,91.5C 245.325,89.3792 245.659,87.3792 246.5,85.5 Z"/></g>
<g><path style="opacity:1" fill="#aad9e6" d="M 319.5,65.5 C 329.917,63.5656 337.417,67.2323 342,76.5C 343.649,93.85 335.816,101.35 318.5,99C 307.691,93.2412 304.858,84.7412 310,73.5C 312.695,70.2413 315.861,67.5746 319.5,65.5 Z"/></g>
<g><path style="opacity:1" fill="#f9fdfd" d="M 321.5,73.5 C 331.893,72.7448 335.393,77.4115 332,87.5C 329.045,91.2765 325.212,92.4432 320.5,91C 315.015,84.8757 315.349,79.0424 321.5,73.5 Z"/></g>
<g><path style="opacity:1" fill="#484544" d="M 133.5,19.5 C 155.115,21.2896 168.615,32.6229 174,53.5C 174.584,71.089 170.251,87.4224 161,102.5C 144.492,125.678 124.158,144.678 100,159.5C 99.5006,165.157 99.3339,170.824 99.5,176.5C 98.6733,171.349 98.1733,166.016 98,160.5C 96.6929,169.448 96.1929,178.448 96.5,187.5C 94.1062,178.466 92.9395,169.132 93,159.5C 90.648,157.97 88.4813,156.303 86.5,154.5C 90.4967,156.402 91.83,155.402 90.5,151.5C 91.9733,152.072 93.3066,152.905 94.5,154C 95.8333,154.667 97.1667,154.667 98.5,154C 122.955,138.545 143.122,118.712 159,94.5C 166.756,80.719 169.756,66.0524 168,50.5C 161.996,34.6721 150.496,26.3388 133.5,25.5C 133.5,23.5 133.5,21.5 133.5,19.5 Z"/></g>
<g><path style="opacity:1" fill="#434040" d="M 59.5,19.5 C 59.5,21.5 59.5,23.5 59.5,25.5C 43.3451,25.8106 32.1784,33.4773 26,48.5C 22.5862,68.3448 27.0862,86.1781 39.5,102C 43.5,102.667 47.5,102.667 51.5,102C 53.7942,97.912 55.9609,93.7453 58,89.5C 59.6667,86.8333 61.3333,86.8333 63,89.5C 66,96.8333 69,104.167 72,111.5C 76.0517,102.683 79.7184,93.6833 83,84.5C 85.0008,79.8109 87.3341,79.4776 90,83.5C 92.1214,90.1582 94.6214,96.6582 97.5,103C 105.827,103.5 114.16,103.666 122.5,103.5C 122.714,105.144 122.38,106.644 121.5,108C 112.167,108.667 102.833,108.667 93.5,108C 91.4624,102.761 89.2958,97.5941 87,92.5C 82.5496,102.009 78.383,111.676 74.5,121.5C 72.9547,122.452 71.288,122.785 69.5,122.5C 66.7959,114.086 63.7959,105.752 60.5,97.5C 58.625,100.751 56.625,103.918 54.5,107C 42.8381,107.5 31.1714,107.667 19.5,107.5C 19.5,105.833 19.5,104.167 19.5,102.5C 23.5,102.5 27.5,102.5 31.5,102.5C 28.0584,95.0244 24.8918,87.3578 22,79.5C 13.4345,54.8933 20.2678,36.06 42.5,23C 47.9753,20.8716 53.642,19.705 59.5,19.5 Z"/></g>
<g><path style="opacity:1" fill="#87d7c4" d="M 234.5,177.5 C 234.334,171.824 234.501,166.157 235,160.5C 236.992,159.672 238.492,158.339 239.5,156.5C 244.142,149.843 243.142,144.01 236.5,139C 228.629,135.607 222.962,137.774 219.5,145.5C 217.673,153.818 221.007,159.152 229.5,161.5C 229.786,167.259 229.452,172.925 228.5,178.5C 209.132,173.789 200.632,161.456 203,141.5C 208.882,126.138 220.048,119.305 236.5,121C 254.785,126.602 262.285,138.768 259,157.5C 254.914,169.278 246.748,175.945 234.5,177.5 Z"/></g>
<g><path style="opacity:1" fill="#8bd7be" d="M 236.5,152.5 C 231.828,156.738 227.495,156.405 223.5,151.5C 223.218,146.45 225.552,143.45 230.5,142.5C 236.395,143.692 238.395,147.026 236.5,152.5 Z"/></g>
<g><path style="opacity:1" fill="#1b322d" d="M 239.5,156.5 C 237.856,156.286 236.356,156.62 235,157.5C 235.134,155.811 235.634,154.144 236.5,152.5C 238.395,147.026 236.395,143.692 230.5,142.5C 225.552,143.45 223.218,146.45 223.5,151.5C 221.879,149.77 220.545,147.77 219.5,145.5C 222.962,137.774 228.629,135.607 236.5,139C 243.142,144.01 244.142,149.843 239.5,156.5 Z"/></g>
<g><path style="opacity:1" fill="#3d393c" d="M 90.5,151.5 C 91.83,155.402 90.4967,156.402 86.5,154.5C 70.3608,143.871 55.8608,131.204 43,116.5C 40.6917,112.468 41.8583,110.968 46.5,112C 59.8191,126.827 74.4858,139.994 90.5,151.5 Z"/></g>
<g><path style="opacity:1" fill="#283c3c" d="M 219.5,145.5 C 220.545,147.77 221.879,149.77 223.5,151.5C 227.495,156.405 231.828,156.738 236.5,152.5C 235.634,154.144 235.134,155.811 235,157.5C 236.356,156.62 237.856,156.286 239.5,156.5C 238.492,158.339 236.992,159.672 235,160.5C 234.501,166.157 234.334,171.824 234.5,177.5C 234.672,178.492 234.338,179.158 233.5,179.5C 233.19,178.262 232.69,178.262 232,179.5C 231.667,174.167 231.333,168.833 231,163.5C 230.841,161.657 230.341,160.991 229.5,161.5C 221.007,159.152 217.673,153.818 219.5,145.5 Z"/></g>
<g><path style="opacity:1" fill="#727179" d="M 99.5,177.5 C 100.525,180.974 101.192,184.64 101.5,188.5C 99.783,185.155 99.1164,181.489 99.5,177.5 Z"/></g>
<g><path style="opacity:1" fill="#3f3b3d" d="M 99.5,176.5 C 99.5,176.833 99.5,177.167 99.5,177.5C 99.1164,181.489 99.783,185.155 101.5,188.5C 108.932,214.766 125.932,230.932 152.5,237C 159.826,237.5 167.159,237.666 174.5,237.5C 177.68,237.661 180.347,238.661 182.5,240.5C 143.537,248.435 115.704,234.435 99,198.5C 97.4383,194.986 96.605,191.319 96.5,187.5C 96.1929,178.448 96.6929,169.448 98,160.5C 98.1733,166.016 98.6733,171.349 99.5,176.5 Z"/></g>
<g><path style="opacity:1" fill="#413e3d" d="M 233.5,179.5 C 230.673,205.992 217.339,225.159 193.5,237C 189.968,238.632 186.301,239.799 182.5,240.5C 180.347,238.661 177.68,237.661 174.5,237.5C 205.721,229.945 223.721,210.278 228.5,178.5C 229.452,172.925 229.786,167.259 229.5,161.5C 230.341,160.991 230.841,161.657 231,163.5C 231.333,168.833 231.667,174.167 232,179.5C 232.69,178.262 233.19,178.262 233.5,179.5 Z"/></g>
</svg>
